<svg width="24" height="24" viewBox="0 0 24 24" fill="none" xmlns="http://www.w3.org/2000/svg">
<circle cx="12" cy="12" r="12" fill="white"/>
<g clip-path="url(#clip0_146_86)">
<path d="M11.9773 4.61523C12.0559 4.68043 12.1427 4.73697 12.2116 4.81168C13.167 5.85043 14.1193 6.89235 15.0744 7.93139C15.1766 8.04245 15.2254 8.16331 15.2248 8.31793C15.2212 9.15908 15.2232 10.0002 15.2232 10.8414V10.9871C15.4912 11.0846 15.7554 11.1578 16.001 11.2738C17.3141 11.8925 18.1499 12.9382 18.3924 14.4134C18.6632 16.0591 18.1335 17.4339 16.882 18.4873C16.259 19.0115 15.5337 19.2922 14.7348 19.3649C14.7126 19.3669 14.6909 19.3775 14.669 19.3842H14.0585C14.033 19.3758 14.0078 19.3625 13.9814 19.3597C12.6947 19.2076 11.6968 18.5629 10.9784 17.4486C10.9179 17.3548 10.856 17.3283 10.7542 17.3286C9.57982 17.3318 8.40547 17.3321 7.23113 17.3286C7.08405 17.3283 6.93365 17.3194 6.79075 17.2868C6.03541 17.114 5.5412 16.4635 5.54037 15.642C5.53842 13.4984 5.53953 11.3551 5.53953 9.21158C5.53953 8.24091 5.53676 7.26995 5.54064 6.29927C5.54314 5.72293 5.75986 5.24379 6.22161 4.92331C6.42973 4.77879 6.69029 4.71533 6.92699 4.61523C8.61054 4.61523 10.2938 4.61523 11.9773 4.61523ZM11.1368 12.5915C11.0566 12.5915 11.0039 12.5915 10.9512 12.5915C9.99383 12.5915 9.03649 12.5915 8.07914 12.5915C8.02836 12.5915 7.97702 12.5924 7.9268 12.5869C7.75253 12.567 7.64681 12.4559 7.64292 12.2924C7.63876 12.1236 7.74587 12.0019 7.92374 11.9779C7.96925 11.9719 8.01615 11.9742 8.06221 11.9742C9.2138 11.9742 10.3654 11.9724 11.517 11.9765C11.6391 11.9768 11.7332 11.9459 11.8306 11.8651C12.5312 11.2862 13.3273 10.9637 14.2256 10.9282C14.3571 10.923 14.4889 10.9274 14.6196 10.9274V8.5262C14.5575 8.5262 14.5072 8.5262 14.457 8.5262C13.9806 8.5262 13.5044 8.52966 13.0279 8.52418C12.8856 8.52245 12.7385 8.51581 12.6023 8.47802C11.9832 8.3061 11.6177 7.80129 11.6127 7.12023C11.6086 6.54331 11.6119 5.96639 11.6113 5.38947C11.6113 5.33898 11.6069 5.28879 11.6041 5.23629C11.5556 5.23312 11.5236 5.22937 11.4917 5.22937C10.0579 5.22908 8.62441 5.22822 7.19061 5.23081C7.08544 5.23081 6.97694 5.24322 6.87621 5.27235C6.39754 5.4111 6.13004 5.8037 6.12976 6.36677C6.12865 9.43889 6.12754 12.511 6.13364 15.5828C6.13392 15.7648 6.16722 15.9619 6.23992 16.1254C6.43195 16.5573 6.7913 16.7168 7.23501 16.7153C8.30335 16.7122 9.3717 16.7145 10.44 16.7139C10.4883 16.7139 10.5366 16.7096 10.6007 16.7064C10.2963 15.8681 10.2364 15.029 10.4262 14.1619C10.3654 14.1619 10.3196 14.1619 10.2738 14.1619C9.51072 14.1619 8.74762 14.163 7.98452 14.161C7.77112 14.1604 7.6407 14.0373 7.64209 13.8503C7.64348 13.6672 7.76641 13.5549 7.97591 13.5469C8.01282 13.5454 8.05 13.5463 8.08691 13.5463C8.80367 13.5463 9.52099 13.533 10.2372 13.5532C10.5061 13.5607 10.7023 13.5232 10.7714 13.2195C10.7805 13.1788 10.8074 13.1419 10.8291 13.1049C10.9251 12.9428 11.0225 12.7816 11.1365 12.5915H11.1368ZM14.3954 18.7729C16.3137 18.7634 17.8688 17.142 17.8666 15.1533C17.8641 13.154 16.2935 11.5259 14.3788 11.5386C12.4591 11.5513 10.8998 13.1823 10.9137 15.1631C10.9279 17.1624 12.4899 18.7822 14.3954 18.7726V18.7729ZM12.201 5.69495C12.201 5.77514 12.201 5.8086 12.201 5.84206C12.201 6.2837 12.1941 6.72533 12.2038 7.16668C12.2132 7.59822 12.5168 7.90052 12.9339 7.90543C13.3079 7.91004 13.682 7.90658 14.056 7.90629C14.0999 7.90629 14.1434 7.90254 14.2156 7.89908C13.5402 7.16004 12.8847 6.44235 12.2013 5.69437L12.201 5.69495Z" fill="black"/>
<path d="M9.42009 11.0483C8.95335 11.0483 8.48661 11.0492 8.01986 11.0474C7.96048 11.0474 7.89888 11.0431 7.84227 11.0258C7.70935 10.9849 7.63443 10.8623 7.64386 10.7177C7.65302 10.5767 7.74848 10.4656 7.88528 10.444C7.93967 10.4353 7.99572 10.4359 8.05122 10.4359C8.97083 10.4353 9.89044 10.4356 10.81 10.4356C10.8239 10.4356 10.8378 10.4356 10.8517 10.4356C11.0864 10.4379 11.2282 10.5542 11.2266 10.7431C11.2249 10.9335 11.0842 11.048 10.8481 11.0483C10.3722 11.0489 9.89626 11.0483 9.42009 11.0483Z" fill="black"/>
<path d="M14.096 16.4003V16.231C14.096 15.2165 14.0954 14.2022 14.0962 13.1877C14.0962 12.9564 14.1689 12.8396 14.3304 12.8C14.4756 12.7646 14.6279 12.8494 14.6679 12.9976C14.6862 13.0657 14.6915 13.1396 14.6915 13.2108C14.6928 14.2253 14.6926 15.2396 14.6926 16.2541C14.6926 16.3057 14.6926 16.3571 14.6926 16.4087C14.7078 16.4202 14.7231 16.4321 14.7386 16.4436C14.7583 16.4067 14.7719 16.364 14.7986 16.334C15.1429 15.9448 15.489 15.5571 15.8358 15.1703C15.8797 15.1216 15.9271 15.0734 15.9807 15.0379C16.0889 14.9667 16.2371 14.9871 16.3253 15.0829C16.4175 15.1827 16.4435 15.301 16.3825 15.4271C16.3561 15.4816 16.3151 15.5303 16.2745 15.5756C15.7365 16.1782 15.1976 16.7799 14.6584 17.3811C14.465 17.5966 14.3052 17.5954 14.1082 17.3762C13.5687 16.775 13.0284 16.1747 12.494 15.5687C12.4327 15.4989 12.3861 15.4002 12.368 15.3076C12.3453 15.1902 12.4063 15.0771 12.5137 15.0414C12.6014 15.0122 12.7085 15.0244 12.8017 15.0446C12.8525 15.0555 12.8958 15.1184 12.9366 15.1637C13.2818 15.5456 13.6259 15.9284 13.97 16.3115C14.0008 16.3458 14.0305 16.3816 14.0604 16.4168C14.0721 16.4113 14.084 16.4061 14.0957 16.4006L14.096 16.4003Z" fill="black"/>
</g>
<defs>
<clipPath id="clip0_146_86">
<rect width="12.9231" height="14.7692" fill="white" transform="translate(5.53857 4.61523)"/>
</clipPath>
</defs>
</svg>
